<svg width="180" height="91" viewBox="0 0 180 91" fill="none" xmlns="http://www.w3.org/2000/svg">
<path d="M81.523 81.096C80.755 81.096 79.923 80.776 79.027 80.136C78.1736 79.496 77.747 78.7493 77.747 77.896C77.747 77.256 77.875 76.6373 78.131 76.04C78.387 75.4 78.6643 74.8027 78.963 74.248V74.056C79.3043 73.544 79.731 73.1173 80.243 72.776C80.371 72.5627 80.499 72.3067 80.627 72.008C80.7976 71.6667 81.011 71.4747 81.267 71.432L81.587 71.624C81.1176 72.2213 80.6696 72.904 80.243 73.672L79.475 77.64C79.731 78.024 80.1363 78.216 80.691 78.216C81.459 78.216 82.3976 78.0667 83.507 77.768C84.6163 77.512 85.7256 77.2133 86.835 76.872C87.9443 76.5307 88.883 76.232 89.651 75.976V75.912C89.8643 75.912 90.0776 75.8907 90.291 75.848C90.547 75.7627 90.7176 75.592 90.803 75.336L90.739 75.144L91.251 75.208C91.507 75.08 91.763 74.952 92.019 74.824C92.275 74.696 92.5523 74.6107 92.851 74.568C93.0216 74.3973 93.4696 74.0347 94.195 73.48C94.9203 72.8827 95.731 72.264 96.627 71.624C97.523 70.9413 98.3336 70.344 99.059 69.832C99.7843 69.32 100.232 69.0213 100.403 68.936L100.851 68.232L101.363 67.976V67.336C101.448 66.696 101.15 66.2053 100.467 65.864C99.7843 65.48 98.8883 65.16 97.779 64.904C96.6696 64.648 95.475 64.392 94.195 64.136C92.9576 63.88 91.763 63.5387 90.611 63.112C89.5016 62.6427 88.5843 62.0453 87.859 61.32C87.1763 60.5947 86.835 59.6347 86.835 58.44L86.515 58.632L86.387 58.44C86.387 57.544 86.899 56.584 87.923 55.56C88.9896 54.536 90.3336 53.5333 91.955 52.552C93.5763 51.528 95.2616 50.5893 97.011 49.736C98.803 48.84 100.446 48.0933 101.939 47.496C103.475 46.856 104.648 46.408 105.459 46.152C106.184 46.2373 106.846 46.408 107.443 46.664C108.083 46.8773 108.488 47.4107 108.659 48.264C109.128 48.0933 109.363 47.7307 109.363 47.176C109.363 46.8773 109.342 46.6 109.299 46.344C109.256 46.0453 109.171 45.7893 109.043 45.576L109.299 45.448C109.512 45.448 109.896 45.5333 110.451 45.704C111.048 45.832 111.688 46.0027 112.371 46.216C113.054 46.4293 113.651 46.6427 114.163 46.856C114.718 47.0693 115.038 47.2613 115.123 47.432L114.867 48.392L113.715 48.84L113.267 48.648C112.84 48.8187 112.648 49.1813 112.691 49.736C112.734 50.2907 112.606 50.6107 112.307 50.696L111.731 50.44V50.504L112.179 51.4L112.051 51.592L112.243 51.912L112.051 51.976L111.603 51.784C111.432 52.1253 111.304 52.616 111.219 53.256C111.134 53.8533 110.856 54.1733 110.387 54.216C109.918 54.6427 109.406 55.1973 108.851 55.88C108.296 56.52 107.656 56.8827 106.931 56.968V56.84L107.123 55.56L106.931 55.24C107.059 54.5147 107.23 53.7467 107.443 52.936C107.656 52.1253 107.891 51.4213 108.147 50.824C107.806 50.312 107.4 49.8427 106.931 49.416C106.504 48.9893 105.971 48.776 105.331 48.776C104.563 48.776 103.496 49.0107 102.131 49.48C100.766 49.9067 99.2723 50.504 97.651 51.272C96.0723 51.9973 94.579 52.8293 93.171 53.768C91.763 54.7067 90.6323 55.6667 89.779 56.648C88.9256 57.6293 88.563 58.568 88.691 59.464C88.5203 59.336 88.4136 59.1653 88.371 58.952C88.3283 58.7387 88.307 58.5253 88.307 58.312C88.307 58.0987 88.307 57.8853 88.307 57.672C88.3496 57.4587 88.3923 57.2667 88.435 57.096C88.1363 57.5227 87.987 58.0133 87.987 58.568C87.987 59.592 88.4136 60.3813 89.267 60.936C90.1203 61.4907 91.2296 61.9173 92.595 62.216C93.9603 62.5147 95.411 62.792 96.947 63.048C98.483 63.2613 99.9336 63.5173 101.299 63.816C102.664 64.1147 103.774 64.5627 104.627 65.16C105.48 65.7147 105.907 66.504 105.907 67.528C105.907 68.0827 105.779 68.5947 105.523 69.064C105.267 69.4907 105.032 69.9387 104.819 70.408C104.35 70.5787 104.051 70.8133 103.923 71.112C103.795 71.4107 103.603 71.752 103.347 72.136C103.006 72.2213 102.558 72.52 102.003 73.032C101.491 73.5013 101.107 73.7147 100.851 73.672C100.68 73.7573 100.488 73.8853 100.275 74.056C100.104 74.184 99.9763 74.3547 99.891 74.568L99.699 74.44C99.2296 75.08 98.4403 75.72 97.331 76.36C96.2216 77 94.9203 77.5973 93.427 78.152C91.9763 78.7067 90.483 79.1973 88.947 79.624C87.4536 80.0933 86.0456 80.456 84.723 80.712C83.4003 80.968 82.3336 81.096 81.523 81.096ZM106.227 58.12L106.547 57.16L106.867 57.416L106.227 58.12ZM102.387 66.12L102.515 65.8L102.323 65.544L101.939 65.736L102.387 66.12ZM105.203 68.488V68.36L104.819 67.784L104.755 68.104V68.36L105.203 68.488ZM103.987 69.576L104.435 69.32L104.499 68.744L104.435 68.168C104.008 68.5947 103.774 69.0427 103.731 69.512L103.987 69.576ZM104.051 70.472L104.691 69.768V69.704L103.667 70.024L103.795 70.408L104.051 70.472ZM102.259 71.624L102.963 71.56L103.475 70.536L102.707 71.24L102.451 70.984L102.259 71.56V71.624ZM116.407 61C116.279 61 115.938 60.9573 115.383 60.872C114.871 60.744 114.615 60.5947 114.615 60.424C114.615 59.784 114.935 59.3147 115.575 59.016C116.258 58.7173 116.812 58.4187 117.239 58.12H117.367C117.964 57.6507 118.668 57.3307 119.479 57.16C120.332 56.9893 121.122 56.8827 121.847 56.84L121.783 56.904C120.972 57.16 120.247 57.6293 119.607 58.312C118.967 58.952 118.37 59.5707 117.815 60.168C117.303 60.7227 116.834 61 116.407 61ZM108.151 78.792L107.127 77.32C107.084 77.0213 107.02 76.744 106.935 76.488C106.85 76.1893 106.807 75.8907 106.807 75.592C106.807 75.208 106.828 74.824 106.871 74.44C106.914 74.056 106.956 73.672 106.999 73.288L107.447 72.2L107.383 72.136C107.596 71.624 107.81 70.9627 108.023 70.152C108.236 69.3413 108.492 68.5307 108.791 67.72C109.132 66.8667 109.538 66.1627 110.007 65.608C110.476 65.0107 111.052 64.712 111.735 64.712C112.204 64.712 112.738 64.8827 113.335 65.224C113.932 65.5653 114.231 66.0133 114.231 66.568C114.231 66.7813 114.06 67.1653 113.719 67.72C113.42 68.2747 113.058 68.8933 112.631 69.576C112.204 70.216 111.778 70.792 111.351 71.304C110.967 71.7733 110.69 72.0507 110.519 72.136C110.135 72.8187 109.602 73.608 108.919 74.504C108.236 75.4 107.895 76.232 107.895 77C107.895 77.2987 107.938 77.576 108.023 77.832C108.151 78.088 108.215 78.3653 108.215 78.664L108.151 78.792ZM114.758 77.768C114.289 77.768 113.947 77.5547 113.734 77.128C113.563 76.744 113.478 76.36 113.478 75.976C113.478 74.8667 113.734 73.7147 114.246 72.52C114.801 71.3253 115.334 70.2373 115.846 69.256C116.401 68.232 116.678 67.4427 116.678 66.888C116.678 66.632 116.529 66.504 116.23 66.504C116.102 66.504 115.91 66.5467 115.654 66.632V66.376L117.19 64.584V64.52C117.403 64.3067 117.595 64.0933 117.766 63.88C117.937 63.6667 118.107 63.4747 118.278 63.304L118.854 62.92C119.323 62.9627 119.771 63.0907 120.198 63.304C120.667 63.4747 120.966 63.8373 121.094 64.392L121.03 64.456C121.073 64.7973 120.923 65.16 120.582 65.544C120.241 65.928 119.942 66.2267 119.686 66.44C119.43 66.9093 119.131 67.3573 118.79 67.784C118.491 68.168 118.214 68.5947 117.958 69.064V69.704L117.702 70.216H117.574C117.446 70.472 117.318 70.7493 117.19 71.048C117.105 71.3467 117.062 71.6667 117.062 72.008L117.382 72.52C117.51 72.392 117.745 72.2 118.086 71.944C118.47 71.6453 118.811 71.3467 119.11 71.048C119.409 70.7493 119.558 70.536 119.558 70.408L120.262 69.768C120.475 69.128 120.945 68.4453 121.67 67.72C122.395 66.952 123.014 66.3547 123.526 65.928L123.718 65.416C123.974 65.288 124.23 65.1387 124.486 64.968C124.785 64.7973 125.083 64.712 125.382 64.712C125.723 64.712 126.022 64.7973 126.278 64.968C126.577 65.1387 126.875 65.3093 127.174 65.48C127.174 65.6507 127.174 65.864 127.174 66.12C127.217 66.3333 127.238 66.5467 127.238 66.76C127.238 67.4427 127.046 68.0827 126.662 68.68C126.278 69.2773 125.894 69.896 125.51 70.536C125.126 71.176 124.934 71.9653 124.934 72.904C124.934 73.032 124.934 73.3307 124.934 73.8C124.977 74.2267 125.041 74.6533 125.126 75.08C125.254 75.464 125.446 75.656 125.702 75.656L127.75 74.568H127.878C127.963 74.312 128.113 74.0773 128.326 73.864C128.582 73.6507 128.859 73.544 129.158 73.544L129.222 73.608C129.222 73.8213 129.03 74.1413 128.646 74.568C128.305 74.9947 127.921 75.4 127.494 75.784C127.11 76.168 126.833 76.4453 126.662 76.616C126.491 76.6587 126.299 76.7013 126.086 76.744C125.873 76.744 125.659 76.7867 125.446 76.872L125.254 76.552C124.315 76.4667 123.526 76.1467 122.886 75.592C122.289 74.9947 121.99 74.2267 121.99 73.288C121.99 72.9893 122.054 72.456 122.182 71.688C122.31 70.8773 122.459 70.088 122.63 69.32C122.843 68.552 122.993 68.0187 123.078 67.72C122.566 68.0613 122.075 68.5947 121.606 69.32C121.137 70.0027 120.71 70.5787 120.326 71.048C119.899 71.2187 119.451 71.6667 118.982 72.392C118.555 73.0747 118.107 73.8427 117.638 74.696C117.169 75.5067 116.699 76.232 116.23 76.872C115.761 77.4693 115.27 77.768 114.758 77.768ZM127.543 90.12C126.775 90.12 126.007 89.8853 125.239 89.416C124.471 88.9467 123.831 88.3493 123.319 87.624C122.765 86.8987 122.487 86.152 122.487 85.384L122.679 85C123.106 85.4693 123.426 85.9813 123.639 86.536C123.853 87.0907 124.151 87.5387 124.535 87.88C124.877 88.264 125.495 88.456 126.391 88.456C126.562 88.456 126.733 88.4347 126.903 88.392C127.074 88.3493 127.245 88.3067 127.415 88.264C127.799 88.392 128.375 88.1573 129.143 87.56C129.954 86.9627 130.765 86.1947 131.575 85.256C132.429 84.36 133.154 83.464 133.751 82.568C134.391 81.7147 134.733 81.096 134.775 80.712C135.458 79.688 136.098 78.6427 136.695 77.576C137.293 76.5093 137.89 75.464 138.487 74.44L138.551 73.608L139.127 73.288L138.999 73.224L139.127 72.648L138.999 72.2C138.829 72.3707 138.615 72.52 138.359 72.648C138.103 72.7333 137.869 72.8613 137.655 73.032L137.591 73.608C136.994 73.736 136.397 74.0347 135.799 74.504C135.245 74.9307 134.69 75.3573 134.135 75.784C133.581 76.168 132.983 76.36 132.343 76.36C132.045 76.36 131.661 76.3387 131.191 76.296C130.765 76.2107 130.445 76.0827 130.231 75.912C129.677 75.784 129.271 75.6347 129.015 75.464C128.759 75.2507 128.589 74.8667 128.503 74.312L128.759 73.48L128.567 72.968C128.781 72.328 128.93 71.8587 129.015 71.56C129.143 71.2613 129.314 71.0053 129.527 70.792C129.783 70.536 130.189 70.1947 130.743 69.768C130.786 69.5547 130.893 69.4053 131.063 69.32C131.277 69.192 131.469 69.1067 131.639 69.064L131.703 68.744L132.343 67.976L132.535 68.104L132.919 67.528C133.218 67.3147 133.517 67.1867 133.815 67.144C134.157 67.0587 134.477 66.9307 134.775 66.76C134.861 66.2907 135.138 66.0133 135.607 65.928C136.119 65.8 136.418 65.5653 136.503 65.224H136.759L137.847 64.52L138.231 64.712L139.127 64.136C139.383 64.136 139.618 64.1147 139.831 64.072C140.087 64.0293 140.322 64.008 140.535 64.008L140.791 64.136C139.938 64.4347 138.957 64.9253 137.847 65.608C136.738 66.248 135.65 67.016 134.583 67.912C133.559 68.7653 132.706 69.704 132.023 70.728C131.341 71.752 130.999 72.776 130.999 73.8C130.999 74.6107 131.426 75.016 132.279 75.016C133.047 75.016 133.837 74.7813 134.647 74.312C135.501 73.8427 136.269 73.2667 136.951 72.584C137.634 71.9013 138.125 71.24 138.423 70.6L139.511 69.704L140.087 68.808C140.386 68.7653 140.599 68.5093 140.727 68.04C140.855 67.5707 140.983 67.0587 141.111 66.504C141.282 65.9067 141.538 65.3947 141.879 64.968C142.263 64.5413 142.818 64.328 143.543 64.328C143.927 64.328 144.311 64.4347 144.695 64.648C145.079 64.8613 145.271 65.2027 145.271 65.672C145.271 65.8853 145.101 66.3973 144.759 67.208C144.461 68.0187 144.055 68.9787 143.543 70.088C143.031 71.1973 142.498 72.3067 141.943 73.416C141.431 74.4827 140.941 75.4427 140.471 76.296C140.045 77.1067 139.746 77.6187 139.575 77.832C139.533 78.088 139.447 78.4507 139.319 78.92C139.234 79.432 139.063 79.7307 138.807 79.816C138.125 81.0107 137.378 82.12 136.567 83.144C135.757 84.168 134.967 85.2347 134.199 86.344L133.047 86.856C132.919 87.0267 132.77 87.1973 132.599 87.368C132.471 87.5387 132.301 87.688 132.087 87.816L131.895 87.752C131.298 88.4347 130.658 88.9893 129.975 89.416C129.335 89.8853 128.525 90.12 127.543 90.12ZM146.469 78.536C145.915 78.536 145.552 78.2587 145.381 77.704C145.253 77.192 145.189 76.7227 145.189 76.296C145.189 75.9973 145.253 75.4213 145.381 74.568C145.552 73.7147 145.765 72.904 146.021 72.136C146.277 71.3253 146.555 70.92 146.853 70.92C146.896 70.4507 147.067 69.8533 147.365 69.128C147.664 68.4027 148.048 67.976 148.517 67.848V67.784C148.603 67.656 148.709 67.528 148.837 67.4C148.965 67.272 149.093 67.144 149.221 67.016L149.285 66.888V66.952L149.349 66.056C149.563 65.928 149.733 65.7147 149.861 65.416C149.989 65.0747 150.16 64.8187 150.373 64.648L150.565 64.84C150.864 64.4987 151.184 64.1573 151.525 63.816C151.909 63.432 152.101 62.984 152.101 62.472C152.315 62.1307 152.549 61.832 152.805 61.576C153.104 61.2773 153.381 60.9787 153.637 60.68H153.829C154.043 60.4667 154.277 60.36 154.533 60.36L154.789 60.04V59.336L155.045 59.144C155.259 58.8453 155.536 58.4187 155.877 57.864C156.219 57.3093 156.389 56.8827 156.389 56.584C156.389 56.456 156.283 56.392 156.069 56.392C155.899 56.392 155.707 56.4347 155.493 56.52C155.28 56.5627 155.131 56.584 155.045 56.584V56.264L158.309 53.512V53.448C158.864 53.064 159.397 52.6587 159.909 52.232C160.421 51.7627 160.955 51.3573 161.509 51.016C161.979 51.1013 162.491 51.2507 163.045 51.464C163.6 51.6347 163.984 51.9547 164.197 52.424V53.256C163.899 53.5547 163.387 54.088 162.661 54.856C161.936 55.624 161.104 56.4987 160.165 57.48C159.227 58.4187 158.288 59.3573 157.349 60.296C156.411 61.192 155.579 61.9387 154.853 62.536C154.171 63.1333 153.701 63.4533 153.445 63.496L152.677 64.2L152.997 64.776L152.677 65.416C152.336 65.5013 151.973 65.7787 151.589 66.248C151.248 66.6747 151.077 67.08 151.077 67.464C150.693 67.6347 150.437 67.8267 150.309 68.04C150.224 68.2533 150.096 68.4667 149.925 68.68C149.797 68.8933 149.435 69.1067 148.837 69.32L148.645 69.64V71.048L148.901 71.24L148.581 71.112L148.325 71.624H148.197C148.069 72.0507 148.005 72.4987 148.005 72.968L148.325 73.736C148.496 73.5227 148.837 73.2027 149.349 72.776C149.861 72.3067 150.096 71.9653 150.053 71.752L150.565 71.24C150.693 70.8133 150.992 70.28 151.461 69.64C151.973 68.9573 152.528 68.3387 153.125 67.784C153.723 67.2293 154.235 66.952 154.661 66.952V66.888L155.621 66.952C156.219 67.2507 156.581 67.7627 156.709 68.488C156.837 69.2133 157.029 70.0667 157.285 71.048C157.584 71.9867 158.224 72.968 159.205 73.992L160.229 73.352H160.421C160.592 73.1387 160.848 72.9467 161.189 72.776C161.573 72.6053 161.893 72.456 162.149 72.328L162.213 72.392C162.213 72.6053 161.893 72.968 161.253 73.48C160.656 73.992 160.016 74.4613 159.333 74.888C158.651 75.3147 158.16 75.5707 157.861 75.656L157.669 75.528L157.029 75.656L156.837 75.336C155.771 75.208 155.003 74.9307 154.533 74.504C154.064 74.0347 153.744 73.5227 153.573 72.968C153.445 72.4133 153.339 71.9013 153.253 71.432C153.168 70.9627 152.933 70.664 152.549 70.536C152.251 70.8347 151.973 71.1333 151.717 71.432C151.461 71.7307 151.205 72.0507 150.949 72.392C150.565 72.5627 150.181 72.968 149.797 73.608C149.456 74.248 149.115 74.952 148.773 75.72C148.475 76.488 148.133 77.1493 147.749 77.704C147.365 78.2587 146.939 78.536 146.469 78.536ZM154.149 57.16L154.085 56.968L154.277 56.52L154.661 56.584L154.789 57.032L154.149 57.16Z" fill="url(#paint0_angular_4_25)" fill-opacity="0.73"/>
<path d="M47.232 43.328C46.592 43.328 45.824 43.2213 44.928 43.008C44.032 42.8373 43.2213 42.5173 42.496 42.048C41.8133 41.6213 41.472 41.0027 41.472 40.192C41.472 38.9973 41.8133 37.5253 42.496 35.776C43.1786 33.984 44.0533 32.0853 45.12 30.08C46.1866 28.0747 47.3173 26.0693 48.512 24.064C49.7493 22.0587 50.9226 20.224 52.032 18.56C53.1413 16.8533 54.0586 15.4667 54.784 14.4C54.3146 14.4 53.44 14.5067 52.16 14.72C50.9226 14.9333 49.5146 15.2107 47.936 15.552C46.3573 15.8933 44.8 16.2987 43.264 16.768C41.7706 17.1947 40.512 17.664 39.488 18.176C38.464 18.6453 37.9093 19.1147 37.824 19.584L38.336 19.776C38.6346 19.6053 38.9333 19.52 39.232 19.52C39.5733 19.4773 39.9146 19.456 40.256 19.456L41.152 19.136L41.088 19.264C40.1493 19.8613 39.296 20.544 38.528 21.312C37.76 22.0373 36.992 22.8053 36.224 23.616L35.84 23.744L35.584 24.192L34.88 24.32L34.816 24.448L34.88 25.6L32.704 24.512C32.5333 24.0427 32.2773 23.616 31.936 23.232C31.6373 22.848 31.488 22.4 31.488 21.888C33.1093 19.8827 35.0506 18.368 37.312 17.344C39.5733 16.2773 41.8133 15.2107 44.032 14.144L43.968 14.208C44.0533 14.2507 44.1813 14.2933 44.352 14.336C44.5226 14.3787 44.6506 14.4 44.736 14.4C45.0773 14.4 45.4186 14.336 45.76 14.208C46.1013 14.0373 46.4426 13.9093 46.784 13.824V13.952C47.168 13.8667 47.552 13.7813 47.936 13.696C48.32 13.568 48.7253 13.4187 49.152 13.248V13.376L50.112 13.056V12.992L50.432 13.056L50.368 12.992C50.368 12.9067 50.3893 12.8853 50.432 12.928C50.5173 12.9707 50.56 13.0133 50.56 13.056L50.944 12.992L51.072 12.672L51.456 12.8L51.328 12.672L51.456 12.736L51.52 12.8H52.48L52.928 12.608L53.056 12.416L54.784 12.48L54.848 12.416L55.424 12.16C55.7226 12.16 56 12.16 56.256 12.16C56.5546 12.1173 56.8533 12.096 57.152 12.096C57.4506 11.7547 57.7066 11.3493 57.92 10.88C58.176 10.4107 58.5813 10.176 59.136 10.176C59.7333 10.176 60.2666 10.304 60.736 10.56C61.2053 10.816 61.7173 10.944 62.272 10.944C62.3573 11.2 62.6986 11.456 63.296 11.712C63.8933 11.9253 64.5546 12.1173 65.28 12.288C66.048 12.416 66.7733 12.5227 67.456 12.608C68.1386 12.6507 68.6293 12.672 68.928 12.672L71.68 13.504L71.872 13.44C72.256 13.44 72.7893 13.696 73.472 14.208C74.1546 14.72 74.8373 15.2747 75.52 15.872C76.2026 16.4693 76.672 16.9173 76.928 17.216C77.0133 17.5147 77.0986 17.8347 77.184 18.176C77.2693 18.5173 77.3973 18.8373 77.568 19.136C77.3973 20.7573 77.0986 21.9733 76.672 22.784C76.2453 23.552 75.6266 24.1067 74.816 24.448C74.0053 24.7893 72.896 25.152 71.488 25.536L70.656 25.472V25.792H70.528L70.272 25.536L67.712 26.304V25.92C66.9013 26.4747 66.2826 26.752 65.856 26.752C65.472 26.752 64.8533 26.7947 64 26.88L63.936 26.752C63.7653 26.9227 63.5946 27.0293 63.424 27.072C63.2533 27.072 63.0613 27.072 62.848 27.072C62.1653 27.072 61.5466 27.2427 60.992 27.584C60.4373 27.8827 59.8186 28.0107 59.136 27.968V28.288L58.816 28.224L58.56 27.968L58.432 28.224V28.288L58.304 28.224C58.2186 28.1813 58.1333 28.16 58.048 28.16C57.9626 28.1173 57.8773 28.096 57.792 28.096C57.5786 28.096 57.3653 28.1387 57.152 28.224C56.9386 28.2667 56.7253 28.288 56.512 28.288L56.576 27.904C56.5333 27.9467 56.0853 27.9893 55.232 28.032C54.3786 28.0747 53.4826 28.16 52.544 28.288C51.648 28.416 51.008 28.6507 50.624 28.992C50.5813 29.3333 50.4746 29.8027 50.304 30.4C50.1333 30.9547 49.8133 31.232 49.344 31.232V30.784L48.96 30.272H48.896C48.7253 30.272 48.576 30.3573 48.448 30.528C48.3626 30.656 48.3626 30.8267 48.448 31.04C48.32 31.2107 48.192 31.3813 48.064 31.552C47.936 31.68 47.872 31.8507 47.872 32.064L48.192 32.64L48.704 32.512L48.96 32.64C48.96 32.768 48.704 33.1093 48.192 33.664C47.68 34.2187 47.1466 34.9013 46.592 35.712C46.0373 36.48 45.696 37.2907 45.568 38.144L44.8 38.592L45.312 38.912L45.568 39.424L45.12 40.256L45.376 40.512C45.4186 40.7253 45.4613 40.9387 45.504 41.152C45.5893 41.408 45.696 41.6213 45.824 41.792L46.144 41.92C46.5706 41.92 47.0613 41.7707 47.616 41.472C48.2133 41.1733 48.7893 40.8107 49.344 40.384C49.9413 40 50.4106 39.7013 50.752 39.488L51.008 39.808C50.9653 39.9787 50.7306 40.2987 50.304 40.768C49.92 41.28 49.4933 41.7707 49.024 42.24C48.5546 42.7093 48.2346 43.072 48.064 43.328H47.232ZM51.776 27.072C54.5493 26.4747 57.3013 25.92 60.032 25.408C62.7626 24.8533 65.4506 24.0853 68.096 23.104L68.16 23.04C68.928 22.7413 69.7386 22.4 70.592 22.016C71.4453 21.5893 72.192 21.056 72.832 20.416C73.472 19.776 73.792 19.008 73.792 18.112C73.6213 17.728 73.3866 17.3227 73.088 16.896C72.7893 16.4267 72.384 16.1707 71.872 16.128L72 16.192C71.1466 15.8933 70.3146 15.5093 69.504 15.04C68.736 14.5707 67.8826 14.2933 66.944 14.208V14.272H66.752C66.496 14.144 66.2613 14.08 66.048 14.08C65.8773 14.08 65.7066 14.1013 65.536 14.144C65.3653 14.1867 65.1733 14.208 64.96 14.208L64.448 13.824H63.68C63.2106 13.824 62.7413 13.824 62.272 13.824C61.8026 13.7813 61.3333 13.7387 60.864 13.696C60.2666 14.2507 59.5413 14.976 58.688 15.872C57.8773 16.768 57.1093 17.6853 56.384 18.624C55.7013 19.5627 55.1893 20.416 54.848 21.184V21.824C54.1226 22.1227 53.5466 22.784 53.12 23.808C52.736 24.7893 52.3093 25.6 51.84 26.24L51.712 26.688L51.904 26.944L51.776 27.072ZM41.792 19.136L41.92 18.688L42.112 18.816L42.24 19.008L42.112 19.136H41.792ZM51.456 39.232L51.008 39.104C51.008 38.8907 51.136 38.6987 51.392 38.528C51.6906 38.3147 51.9253 38.1867 52.096 38.144L52.288 38.272L51.456 39.232ZM80.622 39.36C79.982 39.36 79.4913 39.104 79.15 38.592L77.678 37.888C77.5073 37.504 77.422 37.0347 77.422 36.48C77.422 35.584 77.6353 34.624 78.062 33.6C78.5313 32.5333 78.9793 31.6373 79.406 30.912C79.1073 30.7413 78.8513 30.528 78.638 30.272C78.4246 30.016 78.2113 29.76 77.998 29.504L77.806 29.376C77.6353 29.5467 77.4433 29.696 77.23 29.824C77.0166 29.952 76.8033 30.0373 76.59 30.08C76.206 30.464 75.6513 31.104 74.926 32C74.2006 32.8533 73.4113 33.7493 72.558 34.688C71.7046 35.584 70.8726 36.3733 70.062 37.056C69.294 37.7387 68.6753 38.08 68.206 38.08L68.142 37.952C68.1846 37.696 68.3766 37.4187 68.718 37.12C69.102 36.7787 69.3793 36.5227 69.55 36.352C69.6353 36.0107 69.8486 35.712 70.19 35.456C70.5313 35.2 70.8513 35.008 71.15 34.88H71.214L71.598 34.304L71.918 34.112L71.854 34.048L72.302 33.728C72.3873 33.5147 72.5153 33.3227 72.686 33.152C72.8566 32.9813 73.006 32.8107 73.134 32.64V32.512C74.0726 31.7867 74.926 30.9973 75.694 30.144C76.5046 29.248 77.3366 28.3733 78.19 27.52L78.254 27.456L78.19 27.072C78.19 26.6027 78.2966 26.0907 78.51 25.536C78.766 24.9387 79.0433 24.4907 79.342 24.192C79.6406 23.7653 80.0033 23.3173 80.43 22.848C80.8993 22.336 81.4113 22.08 81.966 22.08C82.3926 22.08 82.6486 22.2933 82.734 22.72C82.8193 23.104 82.862 23.4453 82.862 23.744C82.862 24.8107 82.5846 25.6427 82.03 26.24C81.4753 26.7947 80.8993 27.2213 80.302 27.52C79.7473 27.8187 79.47 28.1387 79.47 28.48L80.494 28.928L80.878 28.608L80.942 28.672H81.07C81.326 28.544 81.582 28.4373 81.838 28.352C82.094 28.224 82.3713 28.16 82.67 28.16C82.926 28.16 83.182 28.2453 83.438 28.416C83.694 28.544 83.9073 28.672 84.078 28.8L84.142 29.376C84.1846 29.76 84.014 30.1867 83.63 30.656C83.2886 31.0827 82.862 31.5947 82.35 32.192C81.838 32.7467 81.39 33.4293 81.006 34.24C80.622 35.008 80.43 35.904 80.43 36.928C80.43 37.184 80.4726 37.4613 80.558 37.76C80.686 38.016 80.9206 38.144 81.262 38.144C81.774 38.144 82.35 37.952 82.99 37.568C83.63 37.184 84.27 36.7573 84.91 36.288C85.55 35.776 86.0833 35.392 86.51 35.136L86.766 35.456C86.766 35.7547 86.51 36.1173 85.998 36.544C85.486 36.9707 84.8673 37.3973 84.142 37.824C83.4166 38.2507 82.7126 38.6133 82.03 38.912C81.39 39.2107 80.9206 39.36 80.622 39.36ZM98.4395 44.224L97.1595 42.752C96.9461 41.8987 96.7115 41.024 96.4555 40.128C96.2421 39.2747 96.0928 38.4 96.0075 37.504L96.3275 36.288L96.1995 36.224C96.3701 35.7547 96.5408 35.2853 96.7115 34.816C96.9248 34.304 97.0315 33.8133 97.0315 33.344C96.8181 33.5573 96.5835 33.7707 96.3275 33.984C96.1141 34.1973 95.9435 34.4533 95.8155 34.752C95.6448 34.9227 95.4955 35.136 95.3675 35.392C95.2395 35.648 95.0688 35.8613 94.8555 36.032L94.7915 36.608C94.1941 36.736 93.5968 37.0347 92.9995 37.504C92.4448 37.9307 91.8901 38.3573 91.3355 38.784C90.7808 39.168 90.1835 39.36 89.5435 39.36C89.2448 39.36 88.8608 39.3387 88.3915 39.296C87.9648 39.2107 87.6448 39.0827 87.4315 38.912C86.8768 38.784 86.4715 38.6347 86.2155 38.464C86.0021 38.2507 85.8315 37.8667 85.7035 37.312L85.9595 36.48L85.7675 35.968C85.9808 35.2853 86.1301 34.7947 86.2155 34.496C86.3435 34.1973 86.5141 33.9413 86.7275 33.728C86.9835 33.5147 87.3888 33.1947 87.9435 32.768C87.9861 32.5547 88.0928 32.4053 88.2635 32.32C88.4768 32.192 88.6688 32.1067 88.8395 32.064L88.9035 31.744L89.5435 30.976L89.7355 31.104L90.1195 30.528C90.4181 30.3147 90.7168 30.1867 91.0155 30.144C91.3568 30.0587 91.6768 29.9307 91.9755 29.76C92.0608 29.2907 92.3381 29.0133 92.8075 28.928C93.3195 28.8 93.6181 28.5653 93.7035 28.224H93.9595L95.0475 27.52L95.4315 27.712L96.3275 27.136C96.5835 27.136 96.8181 27.1147 97.0315 27.072C97.2875 27.0293 97.5221 27.008 97.7355 27.008L97.9915 27.136C97.1381 27.4347 96.1568 27.9253 95.0475 28.608C93.9381 29.248 92.8501 30.016 91.7835 30.912C90.7595 31.7653 89.9061 32.704 89.2235 33.728C88.5408 34.752 88.1995 35.776 88.1995 36.8C88.1995 37.6107 88.6261 38.016 89.4795 38.016C90.2475 38.016 91.0368 37.7813 91.8475 37.312C92.7008 36.8427 93.4688 36.2667 94.1515 35.584C94.8341 34.9013 95.3248 34.24 95.6235 33.6L96.7115 32.704C96.7968 32.4907 96.9035 32.3413 97.0315 32.256C97.1595 32.1707 97.2448 32.0213 97.2875 31.808C97.5861 31.7653 97.7995 31.5093 97.9275 31.04C98.0555 30.5707 98.2048 30.0587 98.3755 29.504C98.5461 28.9067 98.7808 28.3947 99.0795 27.968C99.3781 27.5413 99.8261 27.328 100.423 27.328C100.893 27.328 101.426 27.5413 102.023 27.968C102.621 28.352 102.919 28.8213 102.919 29.376C102.919 29.6747 102.663 30.2507 102.151 31.104C101.639 31.9573 101.042 32.96 100.359 34.112C99.7195 35.264 99.1435 36.4587 98.6315 37.696C98.1195 38.9333 97.8635 40.1067 97.8635 41.216C97.8635 41.6853 97.9488 42.1547 98.1195 42.624C98.3328 43.0933 98.4608 43.5627 98.5035 44.032L98.4395 44.224ZM102.556 53.12C101.788 53.12 101.02 52.8853 100.252 52.416C99.484 51.9467 98.844 51.3493 98.332 50.624C97.7773 49.8987 97.5 49.152 97.5 48.384L97.692 48C98.1186 48.4693 98.4386 48.9813 98.652 49.536C98.8653 50.0907 99.164 50.5387 99.548 50.88C99.8893 51.264 100.508 51.456 101.404 51.456C101.575 51.456 101.745 51.4347 101.916 51.392C102.087 51.3493 102.257 51.3067 102.428 51.264C102.812 51.392 103.388 51.1573 104.156 50.56C104.967 49.9627 105.777 49.1947 106.588 48.256C107.441 47.36 108.167 46.464 108.764 45.568C109.404 44.7147 109.745 44.096 109.788 43.712C110.471 42.688 111.111 41.6427 111.708 40.576C112.305 39.5093 112.903 38.464 113.5 37.44L113.564 36.608L114.14 36.288L114.012 36.224L114.14 35.648L114.012 35.2C113.841 35.3707 113.628 35.52 113.372 35.648C113.116 35.7333 112.881 35.8613 112.668 36.032L112.604 36.608C112.007 36.736 111.409 37.0347 110.812 37.504C110.257 37.9307 109.703 38.3573 109.148 38.784C108.593 39.168 107.996 39.36 107.356 39.36C107.057 39.36 106.673 39.3387 106.204 39.296C105.777 39.2107 105.457 39.0827 105.244 38.912C104.689 38.784 104.284 38.6347 104.028 38.464C103.772 38.2507 103.601 37.8667 103.516 37.312L103.772 36.48L103.58 35.968C103.793 35.328 103.943 34.8587 104.028 34.56C104.156 34.2613 104.327 34.0053 104.54 33.792C104.796 33.536 105.201 33.1947 105.756 32.768C105.799 32.5547 105.905 32.4053 106.076 32.32C106.289 32.192 106.481 32.1067 106.652 32.064L106.716 31.744L107.356 30.976L107.548 31.104L107.932 30.528C108.231 30.3147 108.529 30.1867 108.828 30.144C109.169 30.0587 109.489 29.9307 109.788 29.76C109.873 29.2907 110.151 29.0133 110.62 28.928C111.132 28.8 111.431 28.5653 111.516 28.224H111.772L112.86 27.52L113.244 27.712L114.14 27.136C114.396 27.136 114.631 27.1147 114.844 27.072C115.1 27.0293 115.335 27.008 115.548 27.008L115.804 27.136C114.951 27.4347 113.969 27.9253 112.86 28.608C111.751 29.248 110.663 30.016 109.596 30.912C108.572 31.7653 107.719 32.704 107.036 33.728C106.353 34.752 106.012 35.776 106.012 36.8C106.012 37.6107 106.439 38.016 107.292 38.016C108.06 38.016 108.849 37.7813 109.66 37.312C110.513 36.8427 111.281 36.2667 111.964 35.584C112.647 34.9013 113.137 34.24 113.436 33.6L114.524 32.704L115.1 31.808C115.399 31.7653 115.612 31.5093 115.74 31.04C115.868 30.5707 115.996 30.0587 116.124 29.504C116.295 28.9067 116.551 28.3947 116.892 27.968C117.276 27.5413 117.831 27.328 118.556 27.328C118.94 27.328 119.324 27.4347 119.708 27.648C120.092 27.8613 120.284 28.2027 120.284 28.672C120.284 28.8853 120.113 29.3973 119.772 30.208C119.473 31.0187 119.068 31.9787 118.556 33.088C118.044 34.1973 117.511 35.3067 116.956 36.416C116.444 37.4827 115.953 38.4427 115.484 39.296C115.057 40.1067 114.759 40.6187 114.588 40.832C114.545 41.088 114.46 41.4507 114.332 41.92C114.247 42.432 114.076 42.7307 113.82 42.816C113.137 44.0107 112.391 45.12 111.58 46.144C110.769 47.168 109.98 48.2347 109.212 49.344L108.06 49.856C107.932 50.0267 107.783 50.1973 107.612 50.368C107.484 50.5387 107.313 50.688 107.1 50.816L106.908 50.752C106.311 51.4347 105.671 51.9893 104.988 52.416C104.348 52.8853 103.537 53.12 102.556 53.12ZM133.002 44.224L131.722 42.752C131.509 41.8987 131.274 41.024 131.018 40.128C130.805 39.2747 130.655 38.4 130.57 37.504L130.89 36.288L130.762 36.224C130.933 35.7547 131.103 35.2853 131.274 34.816C131.487 34.304 131.594 33.8133 131.594 33.344C131.381 33.5573 131.146 33.7707 130.89 33.984C130.677 34.1973 130.506 34.4533 130.378 34.752C130.207 34.9227 130.058 35.136 129.93 35.392C129.802 35.648 129.631 35.8613 129.418 36.032L129.354 36.608C128.757 36.736 128.159 37.0347 127.562 37.504C127.007 37.9307 126.453 38.3573 125.898 38.784C125.343 39.168 124.746 39.36 124.106 39.36C123.807 39.36 123.423 39.3387 122.954 39.296C122.527 39.2107 122.207 39.0827 121.994 38.912C121.439 38.784 121.034 38.6347 120.778 38.464C120.565 38.2507 120.394 37.8667 120.266 37.312L120.522 36.48L120.33 35.968C120.543 35.2853 120.693 34.7947 120.778 34.496C120.906 34.1973 121.077 33.9413 121.29 33.728C121.546 33.5147 121.951 33.1947 122.506 32.768C122.549 32.5547 122.655 32.4053 122.826 32.32C123.039 32.192 123.231 32.1067 123.402 32.064L123.466 31.744L124.106 30.976L124.298 31.104L124.682 30.528C124.981 30.3147 125.279 30.1867 125.578 30.144C125.919 30.0587 126.239 29.9307 126.538 29.76C126.623 29.2907 126.901 29.0133 127.37 28.928C127.882 28.8 128.181 28.5653 128.266 28.224H128.522L129.61 27.52L129.994 27.712L130.89 27.136C131.146 27.136 131.381 27.1147 131.594 27.072C131.85 27.0293 132.085 27.008 132.298 27.008L132.554 27.136C131.701 27.4347 130.719 27.9253 129.61 28.608C128.501 29.248 127.413 30.016 126.346 30.912C125.322 31.7653 124.469 32.704 123.786 33.728C123.103 34.752 122.762 35.776 122.762 36.8C122.762 37.6107 123.189 38.016 124.042 38.016C124.81 38.016 125.599 37.7813 126.41 37.312C127.263 36.8427 128.031 36.2667 128.714 35.584C129.397 34.9013 129.887 34.24 130.186 33.6L131.274 32.704C131.359 32.4907 131.466 32.3413 131.594 32.256C131.722 32.1707 131.807 32.0213 131.85 31.808C132.149 31.7653 132.362 31.5093 132.49 31.04C132.618 30.5707 132.767 30.0587 132.938 29.504C133.109 28.9067 133.343 28.3947 133.642 27.968C133.941 27.5413 134.389 27.328 134.986 27.328C135.455 27.328 135.989 27.5413 136.586 27.968C137.183 28.352 137.482 28.8213 137.482 29.376C137.482 29.6747 137.226 30.2507 136.714 31.104C136.202 31.9573 135.605 32.96 134.922 34.112C134.282 35.264 133.706 36.4587 133.194 37.696C132.682 38.9333 132.426 40.1067 132.426 41.216C132.426 41.6853 132.511 42.1547 132.682 42.624C132.895 43.0933 133.023 43.5627 133.066 44.032L133.002 44.224ZM139.23 42.688C138.548 42.688 137.993 42.3893 137.566 41.792C137.14 41.2373 136.926 40.6187 136.926 39.936C136.926 39.424 137.076 38.656 137.374 37.632C137.716 36.5653 138.121 35.456 138.59 34.304C139.06 33.1093 139.55 32.0427 140.062 31.104C140.574 30.1653 141.044 29.5467 141.47 29.248C142.068 28.3093 142.601 27.4347 143.07 26.624C142.388 26.752 141.705 26.9013 141.022 27.072C140.34 27.2 139.7 27.392 139.102 27.648C138.804 28.032 138.462 28.224 138.078 28.224C137.95 28.1387 137.801 28.0533 137.63 27.968C137.46 27.8827 137.31 27.776 137.182 27.648L137.246 27.52H137.182V27.392C137.182 27.1787 137.14 26.9867 137.054 26.816C137.012 26.6027 136.969 26.4107 136.926 26.24C136.884 26.1973 136.862 26.0907 136.862 25.92C136.862 25.3653 137.118 25.0027 137.63 24.832C138.185 24.6613 138.74 24.576 139.294 24.576C140.105 24.576 140.66 24.64 140.958 24.768L141.598 24.64H143.198C143.497 24.64 143.774 24.64 144.03 24.64C144.286 24.64 144.542 24.6187 144.798 24.576L145.054 24.192L144.99 23.936C145.118 23.6373 145.396 23.1467 145.822 22.464C146.249 21.7813 146.697 21.056 147.166 20.288C147.636 19.52 148.041 18.8587 148.382 18.304C148.766 17.7067 148.958 17.408 148.958 17.408C148.958 17.152 149.172 17.0027 149.598 16.96C150.025 16.9173 150.302 16.896 150.43 16.896C150.9 16.896 151.54 17.0453 152.35 17.344C153.161 17.6 153.566 18.048 153.566 18.688C153.566 19.072 153.417 19.392 153.118 19.648C152.82 19.8613 152.5 20.0107 152.158 20.096V20.16C152.158 20.416 151.966 20.7147 151.582 21.056C151.241 21.3973 150.836 21.696 150.366 21.952C149.897 22.208 149.534 22.3787 149.278 22.464C149.15 22.5067 148.98 22.6773 148.766 22.976C148.596 23.232 148.468 23.424 148.382 23.552V23.808C148.212 23.936 148.02 24.0853 147.806 24.256C147.636 24.384 147.486 24.5547 147.358 24.768C147.572 24.8107 147.785 24.832 147.998 24.832C148.212 24.832 148.425 24.832 148.638 24.832C148.98 24.832 149.3 24.832 149.598 24.832C149.94 24.832 150.26 24.8533 150.558 24.896L152.542 25.152C152.03 25.5787 151.454 25.8347 150.814 25.92C150.174 25.9627 149.513 25.984 148.83 25.984C148.19 25.9413 147.572 26.048 146.974 26.304C146.676 26.3893 146.27 26.6453 145.758 27.072C145.289 27.4987 144.862 27.968 144.478 28.48C144.094 28.9493 143.902 29.3547 143.902 29.696L142.43 31.68C142.004 31.8933 141.79 32.2133 141.79 32.64C141.79 33.0667 141.556 33.28 141.086 33.28L140.19 35.328C140.148 35.584 140.084 35.9893 139.998 36.544C139.956 37.056 139.785 37.3547 139.486 37.44C139.486 37.9947 139.465 38.5493 139.422 39.104C139.38 39.616 139.358 40.128 139.358 40.64L139.486 40.896H139.998C140.852 40.0427 141.726 39.232 142.622 38.464C143.561 37.6533 144.436 36.8 145.246 35.904L145.566 35.776H145.694L146.078 35.264L146.334 35.136L146.27 35.072L146.654 34.752C146.996 34.112 147.55 33.5787 148.318 33.152L148.382 33.28C148.382 33.4933 148.105 33.9627 147.55 34.688C146.996 35.3707 146.292 36.1813 145.438 37.12C144.628 38.016 143.774 38.8907 142.878 39.744C142.025 40.5973 141.257 41.3013 140.574 41.856C139.892 42.4107 139.444 42.688 139.23 42.688ZM156.044 24C155.916 24 155.575 23.9573 155.02 23.872C154.508 23.744 154.252 23.5947 154.252 23.424C154.252 22.784 154.572 22.3147 155.212 22.016C155.895 21.7173 156.45 21.4187 156.876 21.12H157.004C157.602 20.6507 158.306 20.3307 159.116 20.16C159.97 19.9893 160.759 19.8827 161.484 19.84L161.42 19.904C160.61 20.16 159.884 20.6293 159.244 21.312C158.604 21.952 158.007 22.5707 157.452 23.168C156.94 23.7227 156.471 24 156.044 24ZM147.788 41.792L146.764 40.32C146.722 40.0213 146.658 39.744 146.572 39.488C146.487 39.1893 146.444 38.8907 146.444 38.592C146.444 38.208 146.466 37.824 146.508 37.44C146.551 37.056 146.594 36.672 146.636 36.288L147.084 35.2L147.02 35.136C147.234 34.624 147.447 33.9627 147.66 33.152C147.874 32.3413 148.13 31.5307 148.428 30.72C148.77 29.8667 149.175 29.1627 149.644 28.608C150.114 28.0107 150.69 27.712 151.372 27.712C151.842 27.712 152.375 27.8827 152.972 28.224C153.57 28.5653 153.868 29.0133 153.868 29.568C153.868 29.7813 153.698 30.1653 153.356 30.72C153.058 31.2747 152.695 31.8933 152.268 32.576C151.842 33.216 151.415 33.792 150.988 34.304C150.604 34.7733 150.327 35.0507 150.156 35.136C149.772 35.8187 149.239 36.608 148.556 37.504C147.874 38.4 147.532 39.232 147.532 40C147.532 40.2987 147.575 40.576 147.66 40.832C147.788 41.088 147.852 41.3653 147.852 41.664L147.788 41.792Z" fill="url(#paint1_angular_4_25)"/>
<defs>
<radialGradient id="paint0_angular_4_25" cx="0" cy="0" r="1" gradientUnits="userSpaceOnUse" gradientTransform="translate(118.286 64.5) rotate(90) scale(19.5 61.7143)">
<stop offset="0.0432673" stop-color="#FFDF6F"/>
<stop offset="0.991444" stop-color="#E15881" stop-opacity="0.93"/>
</radialGradient>
<radialGradient id="paint1_angular_4_25" cx="0" cy="0" r="1" gradientUnits="userSpaceOnUse" gradientTransform="translate(97.3011 18) rotate(101.927) scale(37.8164 126.405)">
<stop offset="0.0374987" stop-color="#E15881" stop-opacity="0.93"/>
<stop offset="0.915444" stop-color="#FFDF6F" stop-opacity="0.73"/>
</radialGradient>
</defs>
</svg>
